<svg xmlns="http://www.w3.org/2000/svg" viewBox="0 0 220 280" fill="none">
  <g stroke="#c99a52" stroke-width="3.2" stroke-linecap="round" stroke-linejoin="round">
    <path d="M105 262C113 212 113 164 100 122C91 91 78 65 58 36" opacity=".9"/>
    <path d="M102 154C129 139 148 118 160 91"/>
    <path d="M111 190C141 180 165 161 181 136"/>
    <path d="M94 117C73 108 55 93 41 72"/>
    <path d="M99 145C75 140 53 128 33 109"/>
    <path d="M114 214C91 206 70 192 53 173"/>
    <path d="M160 91C133 86 116 94 105 116C132 121 151 113 160 91Z"/>
    <path d="M181 136C151 127 129 135 113 159C143 169 166 161 181 136Z"/>
    <path d="M41 72C67 67 86 76 99 99C72 105 53 96 41 72Z"/>
    <path d="M33 109C61 105 83 115 99 139C69 145 48 135 33 109Z"/>
    <path d="M53 173C79 168 99 177 113 199C86 206 67 197 53 173Z"/>
    <path d="M146 45C124 44 108 53 99 72C121 76 137 67 146 45Z" opacity=".75"/>
    <path d="M89 66C74 52 60 35 48 16" opacity=".65"/>
  </g>
</svg>
