<svg xmlns="http://www.w3.org/2000/svg" width="240" height="240" viewBox="0 0 240 240" fill="none" role="img" aria-label="Sofiati botanical line mark"><path d="M28 148 C82 84 156 82 214 52" stroke="#9A6B35" stroke-width="3" stroke-linecap="round"/><g stroke="#9A6B35" fill="#CDAA78" stroke-width="2" opacity=".86"><g transform="translate(46.00 129.46) rotate(-36.00) scale(0.34)"><path d="M0 0 C18 -18 42 -18 58 0 C42 14 18 14 0 0Z" /><path d="M4 0 C22 -3 38 -2 55 0" /></g><g transform="translate(71.00 130.55) rotate(-23.00) scale(0.38)"><path d="M0 0 C18 -18 42 -18 58 0 C42 14 18 14 0 0Z" /><path d="M4 0 C22 -3 38 -2 55 0" /></g><g transform="translate(96.00 118.26) rotate(-10.00) scale(0.42)"><path d="M0 0 C18 -18 42 -18 58 0 C42 14 18 14 0 0Z" /><path d="M4 0 C22 -3 38 -2 55 0" /></g><g transform="translate(121.00 103.89) rotate(3.00) scale(0.34)"><path d="M0 0 C18 -18 42 -18 58 0 C42 14 18 14 0 0Z" /><path d="M4 0 C22 -3 38 -2 55 0" /></g><g transform="translate(146.00 100.66) rotate(16.00) scale(0.38)"><path d="M0 0 C18 -18 42 -18 58 0 C42 14 18 14 0 0Z" /><path d="M4 0 C22 -3 38 -2 55 0" /></g><g transform="translate(171.00 111.53) rotate(29.00) scale(0.42)"><path d="M0 0 C18 -18 42 -18 58 0 C42 14 18 14 0 0Z" /><path d="M4 0 C22 -3 38 -2 55 0" /></g></g></svg>
