<svg xmlns="http://www.w3.org/2000/svg" width="240" height="240" viewBox="0 0 240 240" fill="none" role="img" aria-label="Sofiati corner"><path d="M42 198 V42 H198" stroke="#CDAA78" stroke-width="4"/><path d="M62 176 C62 104 104 62 176 62" stroke="#9A6B35" stroke-width="2"/><g stroke="#9A6B35" fill="#F8F7F2" stroke-width="2"><g transform="translate(70.00 126.00) rotate(-72.00) scale(0.22)"><path d="M0 0 C18 -18 42 -18 58 0 C42 14 18 14 0 0Z" /><path d="M4 0 C22 -3 38 -2 55 0" /></g><g transform="translate(122.00 70.00) rotate(18.00) scale(0.24)"><path d="M0 0 C18 -18 42 -18 58 0 C42 14 18 14 0 0Z" /><path d="M4 0 C22 -3 38 -2 55 0" /></g></g></svg>
