<svg xmlns="http://www.w3.org/2000/svg" width="240" height="240" viewBox="0 0 240 240" fill="none" role="img" aria-label="Sofiati whatsapp icon"><path d="M120 30 L198 84 L168 190 L72 190 L42 84 Z" fill="#F8F7F2" stroke="#3A4739" stroke-width="3"/><g stroke="#DACCB7" fill="#F1ECE0" stroke-width="2" opacity=".9"><g transform="translate(142.00 52.00) rotate(76.00) scale(0.27)"><path d="M0 0 C18 -18 42 -18 58 0 C42 14 18 14 0 0Z" /><path d="M4 0 C22 -3 38 -2 55 0" /></g><g transform="translate(82.00 186.00) rotate(140.00) scale(0.22)"><path d="M0 0 C18 -18 42 -18 58 0 C42 14 18 14 0 0Z" /><path d="M4 0 C22 -3 38 -2 55 0" /></g></g><g stroke="#3A4739" stroke-width="3" stroke-linecap="round" stroke-linejoin="round"><path d="M76 168 L86 140 A54 54 0 1 1 106 160 Z"/><path d="M103 98 C112 126 126 139 148 144"/></g><circle cx="178" cy="64" r="10" fill="#A3AFA1" opacity=".28"/></svg>
