<svg xmlns="http://www.w3.org/2000/svg" width="240" height="240" viewBox="0 0 240 240" fill="none" role="img" aria-label="Sofiati consultation icon"><circle cx="120" cy="120" r="82" fill="#EEE8DC" stroke="#273332" stroke-width="4"/><g stroke="#E0C58E" fill="#EEE8DC" stroke-width="2" opacity=".9"><g transform="translate(142.00 52.00) rotate(546.00) scale(0.27)"><path d="M0 0 C18 -18 42 -18 58 0 C42 14 18 14 0 0Z" /><path d="M4 0 C22 -3 38 -2 55 0" /></g><g transform="translate(82.00 186.00) rotate(-330.00) scale(0.22)"><path d="M0 0 C18 -18 42 -18 58 0 C42 14 18 14 0 0Z" /><path d="M4 0 C22 -3 38 -2 55 0" /></g></g><g stroke="#273332" stroke-width="4" stroke-linecap="round" stroke-linejoin="round"><path d="M74 92 H166 Q178 92 178 104 V142 Q178 154 166 154 H122 L92 176 V154 H74 Q62 154 62 142 V104 Q62 92 74 92Z"/></g><circle cx="178" cy="64" r="8" fill="#7A8B81" opacity=".28"/></svg>
