<svg xmlns="http://www.w3.org/2000/svg" width="240" height="240" viewBox="0 0 240 240" fill="none" role="img" aria-label="Sofiati care icon"><ellipse cx="120" cy="120" rx="86" ry="85" fill="#F8F7F2" stroke="#9A6B35" stroke-width="4"/><g stroke="#CDAA78" fill="#F3EFE4" stroke-width="2" opacity=".9"><g transform="translate(142.00 52.00) rotate(197.00) scale(0.27)"><path d="M0 0 C18 -18 42 -18 58 0 C42 14 18 14 0 0Z" /><path d="M4 0 C22 -3 38 -2 55 0" /></g><g transform="translate(82.00 186.00) rotate(19.00) scale(0.22)"><path d="M0 0 C18 -18 42 -18 58 0 C42 14 18 14 0 0Z" /><path d="M4 0 C22 -3 38 -2 55 0" /></g></g><g stroke="#9A6B35" stroke-width="4" stroke-linecap="round" stroke-linejoin="round"><path d="M70 142 C92 126 108 126 126 144 C144 126 164 124 184 142 M86 116 C96 84 126 76 154 102 C134 128 106 132 86 116Z"/></g><circle cx="178" cy="64" r="11" fill="#A2AEA0" opacity=".28"/></svg>
