<svg xmlns="http://www.w3.org/2000/svg" width="240" height="240" viewBox="0 0 240 240" fill="none" role="img" aria-label="Sofiati values icon"><circle cx="120" cy="120" r="82" fill="#F8F7F2" stroke="#485041" stroke-width="4"/><g stroke="#CDAA78" fill="#F3EFE4" stroke-width="2" opacity=".9"><g transform="translate(142.00 52.00) rotate(314.00) scale(0.27)"><path d="M0 0 C18 -18 42 -18 58 0 C42 14 18 14 0 0Z" /><path d="M4 0 C22 -3 38 -2 55 0" /></g><g transform="translate(82.00 186.00) rotate(-98.00) scale(0.22)"><path d="M0 0 C18 -18 42 -18 58 0 C42 14 18 14 0 0Z" /><path d="M4 0 C22 -3 38 -2 55 0" /></g></g><g stroke="#485041" stroke-width="4" stroke-linecap="round" stroke-linejoin="round"><path d="M120 170 C80 140 66 112 82 88 C98 68 122 86 120 106 C124 86 148 68 164 88 C182 112 160 142 120 170Z"/></g><circle cx="178" cy="64" r="8" fill="#A2AEA0" opacity=".28"/></svg>
