<svg xmlns="http://www.w3.org/2000/svg" width="240" height="240" viewBox="0 0 240 240" fill="none" role="img" aria-label="Sofiati botanical background pattern"><rect width="240" height="240" fill="#FAF8F2"/><path d="M-20 206 C44 138 88 250 144 172 C184 118 210 144 260 92" stroke="#C7A56D" stroke-width="2" opacity=".5"/><circle cx="24" cy="28" r="5" fill="#734011" opacity=".16"/><circle cx="56" cy="28" r="2" fill="#734011" opacity=".16"/><path d="M48 36 C56 16 74 20 78 32" stroke="#B8C1B6" stroke-width="1.4" fill="none" opacity=".42"/><circle cx="88" cy="28" r="3" fill="#734011" opacity=".16"/><circle cx="120" cy="28" r="4" fill="#734011" opacity=".16"/><circle cx="152" cy="28" r="5" fill="#734011" opacity=".16"/><path d="M144 36 C152 16 170 20 174 32" stroke="#B8C1B6" stroke-width="1.4" fill="none" opacity=".42"/><circle cx="184" cy="28" r="2" fill="#734011" opacity=".16"/><circle cx="216" cy="28" r="3" fill="#734011" opacity=".16"/><circle cx="38" cy="66" r="2" fill="#734011" opacity=".16"/><path d="M30 74 C38 54 56 58 60 70" stroke="#B8C1B6" stroke-width="1.4" fill="none" opacity=".42"/><circle cx="70" cy="66" r="3" fill="#734011" opacity=".16"/><circle cx="102" cy="66" r="4" fill="#734011" opacity=".16"/><circle cx="134" cy="66" r="5" fill="#734011" opacity=".16"/><path d="M126 74 C134 54 152 58 156 70" stroke="#B8C1B6" stroke-width="1.4" fill="none" opacity=".42"/><circle cx="166" cy="66" r="2" fill="#734011" opacity=".16"/><circle cx="198" cy="66" r="3" fill="#734011" opacity=".16"/><circle cx="230" cy="66" r="4" fill="#734011" opacity=".16"/><path d="M222 74 C230 54 248 58 252 70" stroke="#B8C1B6" stroke-width="1.4" fill="none" opacity=".42"/><circle cx="24" cy="104" r="3" fill="#734011" opacity=".16"/><circle cx="56" cy="104" r="4" fill="#734011" opacity=".16"/><circle cx="88" cy="104" r="5" fill="#734011" opacity=".16"/><path d="M80 112 C88 92 106 96 110 108" stroke="#B8C1B6" stroke-width="1.4" fill="none" opacity=".42"/><circle cx="120" cy="104" r="2" fill="#734011" opacity=".16"/><circle cx="152" cy="104" r="3" fill="#734011" opacity=".16"/><circle cx="184" cy="104" r="4" fill="#734011" opacity=".16"/><path d="M176 112 C184 92 202 96 206 108" stroke="#B8C1B6" stroke-width="1.4" fill="none" opacity=".42"/><circle cx="216" cy="104" r="5" fill="#734011" opacity=".16"/><circle cx="38" cy="142" r="4" fill="#734011" opacity=".16"/><circle cx="70" cy="142" r="5" fill="#734011" opacity=".16"/><path d="M62 150 C70 130 88 134 92 146" stroke="#B8C1B6" stroke-width="1.4" fill="none" opacity=".42"/><circle cx="102" cy="142" r="2" fill="#734011" opacity=".16"/><circle cx="134" cy="142" r="3" fill="#734011" opacity=".16"/><circle cx="166" cy="142" r="4" fill="#734011" opacity=".16"/><path d="M158 150 C166 130 184 134 188 146" stroke="#B8C1B6" stroke-width="1.4" fill="none" opacity=".42"/><circle cx="198" cy="142" r="5" fill="#734011" opacity=".16"/><circle cx="230" cy="142" r="2" fill="#734011" opacity=".16"/><circle cx="24" cy="180" r="5" fill="#734011" opacity=".16"/><path d="M16 188 C24 168 42 172 46 184" stroke="#B8C1B6" stroke-width="1.4" fill="none" opacity=".42"/><circle cx="56" cy="180" r="2" fill="#734011" opacity=".16"/><circle cx="88" cy="180" r="3" fill="#734011" opacity=".16"/><circle cx="120" cy="180" r="4" fill="#734011" opacity=".16"/><path d="M112 188 C120 168 138 172 142 184" stroke="#B8C1B6" stroke-width="1.4" fill="none" opacity=".42"/><circle cx="152" cy="180" r="5" fill="#734011" opacity=".16"/><circle cx="184" cy="180" r="2" fill="#734011" opacity=".16"/><circle cx="216" cy="180" r="3" fill="#734011" opacity=".16"/><path d="M208 188 C216 168 234 172 238 184" stroke="#B8C1B6" stroke-width="1.4" fill="none" opacity=".42"/></svg>
