<svg xmlns="http://www.w3.org/2000/svg" width="240" height="240" viewBox="0 0 240 240" fill="none" role="img" aria-label="Sofiati generated pattern"><rect width="240" height="240" fill="#FAF8F2"/><path d="M-20 206 C44 138 88 250 144 172 C184 118 210 144 260 92" stroke="#C7A56D" stroke-width="2" opacity=".5"/><circle cx="24" cy="28" r="5" fill="#734011" opacity=".16"/><path d="M16 36 C24 16 42 20 46 32" stroke="#B8C1B6" stroke-width="1.4" fill="none" opacity=".42"/><circle cx="56" cy="28" r="2" fill="#734011" opacity=".16"/><circle cx="88" cy="28" r="3" fill="#734011" opacity=".16"/><circle cx="120" cy="28" r="4" fill="#734011" opacity=".16"/><path d="M112 36 C120 16 138 20 142 32" stroke="#B8C1B6" stroke-width="1.4" fill="none" opacity=".42"/><circle cx="152" cy="28" r="5" fill="#734011" opacity=".16"/><circle cx="184" cy="28" r="2" fill="#734011" opacity=".16"/><circle cx="216" cy="28" r="3" fill="#734011" opacity=".16"/><path d="M208 36 C216 16 234 20 238 32" stroke="#B8C1B6" stroke-width="1.4" fill="none" opacity=".42"/><circle cx="38" cy="66" r="2" fill="#734011" opacity=".16"/><circle cx="70" cy="66" r="3" fill="#734011" opacity=".16"/><circle cx="102" cy="66" r="4" fill="#734011" opacity=".16"/><path d="M94 74 C102 54 120 58 124 70" stroke="#B8C1B6" stroke-width="1.4" fill="none" opacity=".42"/><circle cx="134" cy="66" r="5" fill="#734011" opacity=".16"/><circle cx="166" cy="66" r="2" fill="#734011" opacity=".16"/><circle cx="198" cy="66" r="3" fill="#734011" opacity=".16"/><path d="M190 74 C198 54 216 58 220 70" stroke="#B8C1B6" stroke-width="1.4" fill="none" opacity=".42"/><circle cx="230" cy="66" r="4" fill="#734011" opacity=".16"/><circle cx="24" cy="104" r="3" fill="#734011" opacity=".16"/><circle cx="56" cy="104" r="4" fill="#734011" opacity=".16"/><path d="M48 112 C56 92 74 96 78 108" stroke="#B8C1B6" stroke-width="1.4" fill="none" opacity=".42"/><circle cx="88" cy="104" r="5" fill="#734011" opacity=".16"/><circle cx="120" cy="104" r="2" fill="#734011" opacity=".16"/><circle cx="152" cy="104" r="3" fill="#734011" opacity=".16"/><path d="M144 112 C152 92 170 96 174 108" stroke="#B8C1B6" stroke-width="1.4" fill="none" opacity=".42"/><circle cx="184" cy="104" r="4" fill="#734011" opacity=".16"/><circle cx="216" cy="104" r="5" fill="#734011" opacity=".16"/><circle cx="38" cy="142" r="4" fill="#734011" opacity=".16"/><path d="M30 150 C38 130 56 134 60 146" stroke="#B8C1B6" stroke-width="1.4" fill="none" opacity=".42"/><circle cx="70" cy="142" r="5" fill="#734011" opacity=".16"/><circle cx="102" cy="142" r="2" fill="#734011" opacity=".16"/><circle cx="134" cy="142" r="3" fill="#734011" opacity=".16"/><path d="M126 150 C134 130 152 134 156 146" stroke="#B8C1B6" stroke-width="1.4" fill="none" opacity=".42"/><circle cx="166" cy="142" r="4" fill="#734011" opacity=".16"/><circle cx="198" cy="142" r="5" fill="#734011" opacity=".16"/><circle cx="230" cy="142" r="2" fill="#734011" opacity=".16"/><path d="M222 150 C230 130 248 134 252 146" stroke="#B8C1B6" stroke-width="1.4" fill="none" opacity=".42"/><circle cx="24" cy="180" r="5" fill="#734011" opacity=".16"/><circle cx="56" cy="180" r="2" fill="#734011" opacity=".16"/><circle cx="88" cy="180" r="3" fill="#734011" opacity=".16"/><path d="M80 188 C88 168 106 172 110 184" stroke="#B8C1B6" stroke-width="1.4" fill="none" opacity=".42"/><circle cx="120" cy="180" r="4" fill="#734011" opacity=".16"/><circle cx="152" cy="180" r="5" fill="#734011" opacity=".16"/><circle cx="184" cy="180" r="2" fill="#734011" opacity=".16"/><path d="M176 188 C184 168 202 172 206 184" stroke="#B8C1B6" stroke-width="1.4" fill="none" opacity=".42"/><circle cx="216" cy="180" r="3" fill="#734011" opacity=".16"/><text x="120" y="132" text-anchor="middle" font-family="Georgia, serif" font-size="68" fill="#596858" opacity=".12">FS</text></svg>
