<svg xmlns="http://www.w3.org/2000/svg" width="240" height="240" viewBox="0 0 240 240" fill="none" role="img" aria-label="Sofiati laser icon"><ellipse cx="120" cy="120" rx="86" ry="77" fill="#F2EEE3" stroke="#8F745F" stroke-width="4"/><g stroke="#D2C5A7" fill="#F2EEE3" stroke-width="2" opacity=".9"><g transform="translate(142.00 52.00) rotate(261.00) scale(0.27)"><path d="M0 0 C18 -18 42 -18 58 0 C42 14 18 14 0 0Z" /><path d="M4 0 C22 -3 38 -2 55 0" /></g><g transform="translate(82.00 186.00) rotate(-45.00) scale(0.22)"><path d="M0 0 C18 -18 42 -18 58 0 C42 14 18 14 0 0Z" /><path d="M4 0 C22 -3 38 -2 55 0" /></g></g><g stroke="#8F745F" stroke-width="4" stroke-linecap="round" stroke-linejoin="round"><path d="M72 148 L136 84 M134 82 L168 48 M118 102 L176 160 M80 154 H158"/></g><circle cx="178" cy="64" r="11" fill="#9DA799" opacity=".28"/></svg>
