<svg xmlns="http://www.w3.org/2000/svg" width="240" height="240" viewBox="0 0 240 240" fill="none" role="img" aria-label="Sofiati safety icon"><path d="M120 30 L198 84 L168 190 L72 190 L42 84 Z" fill="#FAF8F2" stroke="#596858" stroke-width="3"/><g stroke="#C7A56D" fill="#F4F0E6" stroke-width="2" opacity=".9"><g transform="translate(142.00 52.00) rotate(188.00) scale(0.27)"><path d="M0 0 C18 -18 42 -18 58 0 C42 14 18 14 0 0Z" /><path d="M4 0 C22 -3 38 -2 55 0" /></g><g transform="translate(82.00 186.00) rotate(28.00) scale(0.22)"><path d="M0 0 C18 -18 42 -18 58 0 C42 14 18 14 0 0Z" /><path d="M4 0 C22 -3 38 -2 55 0" /></g></g><g stroke="#596858" stroke-width="3" stroke-linecap="round" stroke-linejoin="round"><path d="M120 58 L170 78 V116 C170 148 148 172 120 184 C92 172 70 148 70 116 V78 Z"/><path d="M96 120 L114 138 L146 102"/></g><circle cx="178" cy="64" r="10" fill="#B8C1B6" opacity=".28"/></svg>
