<svg xmlns="http://www.w3.org/2000/svg" width="240" height="240" viewBox="0 0 240 240" fill="none" role="img" aria-label="Sofiati results icon"><rect x="42" y="42" width="156" height="156" rx="29" fill="#F3EFE4" stroke="#9A6B35" stroke-width="3"/><g stroke="#CDAA78" fill="#F3EFE4" stroke-width="2" opacity=".9"><g transform="translate(142.00 52.00) rotate(531.00) scale(0.27)"><path d="M0 0 C18 -18 42 -18 58 0 C42 14 18 14 0 0Z" /><path d="M4 0 C22 -3 38 -2 55 0" /></g><g transform="translate(82.00 186.00) rotate(-315.00) scale(0.22)"><path d="M0 0 C18 -18 42 -18 58 0 C42 14 18 14 0 0Z" /><path d="M4 0 C22 -3 38 -2 55 0" /></g></g><g stroke="#9A6B35" stroke-width="3" stroke-linecap="round" stroke-linejoin="round"><path d="M74 164 H170"/><path d="M88 164 V126 M120 164 V96 M152 164 V112"/><path d="M86 110 C112 84 136 130 166 82"/></g><circle cx="178" cy="64" r="9" fill="#A2AEA0" opacity=".28"/></svg>
