<svg xmlns="http://www.w3.org/2000/svg" width="240" height="240" viewBox="0 0 240 240" fill="none" role="img" aria-label="Sofiati consultation form botanical frame"><rect x="20" y="20" width="200" height="200" rx="30" stroke="#8F745F" stroke-width="3" opacity=".72"/><path d="M40 188 C84 132 146 132 200 76" stroke="#D2C5A7" stroke-width="3" stroke-linecap="round"/><g stroke="#344039" fill="#F2EEE3" stroke-width="2"><g transform="translate(82.00 160.00) rotate(-18.00) scale(0.23)"><path d="M0 0 C18 -18 42 -18 58 0 C42 14 18 14 0 0Z" /><path d="M4 0 C22 -3 38 -2 55 0" /></g><g transform="translate(168.00 92.00) rotate(196.00) scale(0.22)"><path d="M0 0 C18 -18 42 -18 58 0 C42 14 18 14 0 0Z" /><path d="M4 0 C22 -3 38 -2 55 0" /></g></g><circle cx="196" cy="44" r="18" fill="#9DA799" opacity=".18"/></svg>
