<svg xmlns="http://www.w3.org/2000/svg" width="240" height="240" viewBox="0 0 240 240" fill="none" role="img" aria-label="Sofiati section line icon"><rect x="42" y="42" width="156" height="156" rx="25" fill="#F8F7F2" stroke="#9A6B35" stroke-width="3"/><g stroke="#CDAA78" fill="#F3EFE4" stroke-width="2" opacity=".9"><g transform="translate(142.00 52.00) rotate(23.00) scale(0.27)"><path d="M0 0 C18 -18 42 -18 58 0 C42 14 18 14 0 0Z" /><path d="M4 0 C22 -3 38 -2 55 0" /></g><g transform="translate(82.00 186.00) rotate(193.00) scale(0.22)"><path d="M0 0 C18 -18 42 -18 58 0 C42 14 18 14 0 0Z" /><path d="M4 0 C22 -3 38 -2 55 0" /></g></g><g stroke="#9A6B35" stroke-width="3" stroke-linecap="round" stroke-linejoin="round"><path d="M52 120 C82 90 108 150 138 120 C158 100 172 100 188 120"/><path d="M80 110 C90 88 110 82 130 94"/></g><circle cx="178" cy="64" r="13" fill="#A2AEA0" opacity=".28"/></svg>
