<svg xmlns="http://www.w3.org/2000/svg" width="240" height="240" viewBox="0 0 240 240" fill="none" role="img" aria-label="Sofiati skin icon"><rect x="42" y="42" width="156" height="156" rx="43" fill="#F8F7F2" stroke="#9A6B35" stroke-width="3"/><g stroke="#CDAA78" fill="#F3EFE4" stroke-width="2" opacity=".9"><g transform="translate(142.00 52.00) rotate(251.00) scale(0.27)"><path d="M0 0 C18 -18 42 -18 58 0 C42 14 18 14 0 0Z" /><path d="M4 0 C22 -3 38 -2 55 0" /></g><g transform="translate(82.00 186.00) rotate(-35.00) scale(0.22)"><path d="M0 0 C18 -18 42 -18 58 0 C42 14 18 14 0 0Z" /><path d="M4 0 C22 -3 38 -2 55 0" /></g></g><g stroke="#9A6B35" stroke-width="3" stroke-linecap="round" stroke-linejoin="round"><path d="M83 143 C84 96 105 72 124 68 C146 80 158 106 154 143 C149 174 93 174 83 143Z"/><circle cx="111" cy="125" r="4"/><circle cx="133" cy="112" r="4"/></g><circle cx="178" cy="64" r="9" fill="#A2AEA0" opacity=".28"/></svg>
