<svg xmlns="http://www.w3.org/2000/svg" width="240" height="240" viewBox="0 0 240 240" fill="none" role="img" aria-label="WhatsApp">
  <circle cx="120" cy="120" r="104" fill="#25D366"/>
  <circle cx="120" cy="120" r="88" fill="#18B85E"/>
  <path d="M72 174l9.8-35.7A60.8 60.8 0 1 1 103 159.8L72 174Z" fill="none" stroke="#FFFFFF" stroke-width="13" stroke-linecap="round" stroke-linejoin="round"/>
  <path d="M98.7 84.6c-4.2 2.5-8.2 8.6-7.5 14.2 2.7 22.6 24.2 44.8 47.7 50.5 5.6 1.4 12.1-2.4 14.9-6.4l4.4-6.3c1.7-2.4.8-5.8-1.9-7.1l-17.2-8.4c-2.2-1.1-4.9-.5-6.5 1.4l-5.4 6.5c-10.9-5.2-19.7-14.1-25.6-25.8l6.2-5.1c2-1.6 2.6-4.5 1.4-6.7l-8.3-15.4c-1.4-2.6-4.7-3.5-7.2-2l-5 3Z" fill="#FFFFFF"/>
</svg>
