<svg xmlns="http://www.w3.org/2000/svg" width="240" height="240" viewBox="0 0 240 240" fill="none" role="img" aria-label="Sofiati credentials icon"><path d="M120 30 L198 84 L168 190 L72 190 L42 84 Z" fill="#F7F2E8" stroke="#273332" stroke-width="3"/><g stroke="#E0C58E" fill="#EEE8DC" stroke-width="2" opacity=".9"><g transform="translate(142.00 52.00) rotate(64.00) scale(0.27)"><path d="M0 0 C18 -18 42 -18 58 0 C42 14 18 14 0 0Z" /><path d="M4 0 C22 -3 38 -2 55 0" /></g><g transform="translate(82.00 186.00) rotate(152.00) scale(0.22)"><path d="M0 0 C18 -18 42 -18 58 0 C42 14 18 14 0 0Z" /><path d="M4 0 C22 -3 38 -2 55 0" /></g></g><g stroke="#273332" stroke-width="3" stroke-linecap="round" stroke-linejoin="round"><path d="M120 58 L154 76 L154 118 Q154 148 120 174 Q86 148 86 118 L86 76 Z"/><path d="M100 112 H140 M120 92 V132"/><circle cx="120" cy="152" r="10"/></g><circle cx="178" cy="64" r="14" fill="#7A8B81" opacity=".28"/></svg>
