<svg xmlns="http://www.w3.org/2000/svg" width="240" height="240" viewBox="0 0 240 240" fill="none" role="img" aria-label="Sofiati mission icon"><path d="M120 30 L198 84 L168 190 L72 190 L42 84 Z" fill="#EEE8DC" stroke="#273332" stroke-width="3"/><g stroke="#E0C58E" fill="#EEE8DC" stroke-width="2" opacity=".9"><g transform="translate(142.00 52.00) rotate(60.00) scale(0.27)"><path d="M0 0 C18 -18 42 -18 58 0 C42 14 18 14 0 0Z" /><path d="M4 0 C22 -3 38 -2 55 0" /></g><g transform="translate(82.00 186.00) rotate(156.00) scale(0.22)"><path d="M0 0 C18 -18 42 -18 58 0 C42 14 18 14 0 0Z" /><path d="M4 0 C22 -3 38 -2 55 0" /></g></g><g stroke="#273332" stroke-width="3" stroke-linecap="round" stroke-linejoin="round"><path d="M120 62 L135 105 L180 106 L144 132 L156 176 L120 150 L84 176 L96 132 L60 106 L105 105Z"/></g><circle cx="178" cy="64" r="10" fill="#7A8B81" opacity=".28"/></svg>
