<svg xmlns="http://www.w3.org/2000/svg" width="240" height="240" viewBox="0 0 240 240" fill="none" role="img" aria-label="Sofiati whatsapp icon"><ellipse cx="120" cy="120" rx="86" ry="79" fill="#F7F2E8" stroke="#B79869" stroke-width="4"/><g stroke="#E0C58E" fill="#EEE8DC" stroke-width="2" opacity=".9"><g transform="translate(142.00 52.00) rotate(65.00) scale(0.27)"><path d="M0 0 C18 -18 42 -18 58 0 C42 14 18 14 0 0Z" /><path d="M4 0 C22 -3 38 -2 55 0" /></g><g transform="translate(82.00 186.00) rotate(151.00) scale(0.22)"><path d="M0 0 C18 -18 42 -18 58 0 C42 14 18 14 0 0Z" /><path d="M4 0 C22 -3 38 -2 55 0" /></g></g><g stroke="#B79869" stroke-width="4" stroke-linecap="round" stroke-linejoin="round"><path d="M76 168 L86 140 A54 54 0 1 1 106 160 Z"/><path d="M103 98 C112 126 126 139 148 144"/></g><circle cx="178" cy="64" r="15" fill="#7A8B81" opacity=".28"/></svg>
