<svg xmlns="http://www.w3.org/2000/svg" width="240" height="240" viewBox="0 0 240 240" fill="none" role="img" aria-label="Sofiati journal icon"><rect x="42" y="42" width="156" height="156" rx="27" fill="#F8F7F2" stroke="#8E7B56" stroke-width="3"/><g stroke="#DACCB7" fill="#F1ECE0" stroke-width="2" opacity=".9"><g transform="translate(142.00 52.00) rotate(235.00) scale(0.27)"><path d="M0 0 C18 -18 42 -18 58 0 C42 14 18 14 0 0Z" /><path d="M4 0 C22 -3 38 -2 55 0" /></g><g transform="translate(82.00 186.00) rotate(-19.00) scale(0.22)"><path d="M0 0 C18 -18 42 -18 58 0 C42 14 18 14 0 0Z" /><path d="M4 0 C22 -3 38 -2 55 0" /></g></g><g stroke="#8E7B56" stroke-width="3" stroke-linecap="round" stroke-linejoin="round"><path d="M78 72 H132 Q154 72 162 90 V172 H104 Q88 172 78 158Z"/><path d="M132 72 V172 M96 104 H118 M96 128 H120"/></g><circle cx="178" cy="64" r="9" fill="#A3AFA1" opacity=".28"/></svg>
