<svg xmlns="http://www.w3.org/2000/svg" width="240" height="240" viewBox="0 0 240 240" fill="none" role="img" aria-label="Sofiati skin icon"><circle cx="120" cy="120" r="82" fill="#F2EEE3" stroke="#344039" stroke-width="4"/><g stroke="#D2C5A7" fill="#F2EEE3" stroke-width="2" opacity=".9"><g transform="translate(142.00 52.00) rotate(42.00) scale(0.27)"><path d="M0 0 C18 -18 42 -18 58 0 C42 14 18 14 0 0Z" /><path d="M4 0 C22 -3 38 -2 55 0" /></g><g transform="translate(82.00 186.00) rotate(174.00) scale(0.22)"><path d="M0 0 C18 -18 42 -18 58 0 C42 14 18 14 0 0Z" /><path d="M4 0 C22 -3 38 -2 55 0" /></g></g><g stroke="#344039" stroke-width="4" stroke-linecap="round" stroke-linejoin="round"><path d="M83 143 C84 96 105 72 124 68 C146 80 158 106 154 143 C149 174 93 174 83 143Z"/><circle cx="111" cy="125" r="4"/><circle cx="133" cy="112" r="4"/></g><circle cx="178" cy="64" r="8" fill="#9DA799" opacity=".28"/></svg>
