<svg xmlns="http://www.w3.org/2000/svg" width="240" height="240" viewBox="0 0 240 240" fill="none" role="img" aria-label="Sofiati gold leaf divider"><path d="M18 120 H222" stroke="#CDAA78" stroke-width="3" stroke-linecap="round"/><path d="M42 120 C84 82 156 82 198 120" stroke="#485041" stroke-width="2" opacity=".65"/><g stroke="#485041" fill="#F3EFE4" stroke-width="2"><g transform="translate(82.00 104.00) rotate(-24.00) scale(0.27)"><path d="M0 0 C18 -18 42 -18 58 0 C42 14 18 14 0 0Z" /><path d="M4 0 C22 -3 38 -2 55 0" /></g><g transform="translate(154.00 103.00) rotate(204.00) scale(0.27)"><path d="M0 0 C18 -18 42 -18 58 0 C42 14 18 14 0 0Z" /><path d="M4 0 C22 -3 38 -2 55 0" /></g></g></svg>
