<svg xmlns="http://www.w3.org/2000/svg" width="240" height="240" viewBox="0 0 240 240" fill="none" role="img" aria-label="Sofiati botanical background pattern"><rect width="240" height="240" fill="#F7F2E8"/><path d="M-20 206 C44 138 88 250 144 172 C184 118 210 144 260 92" stroke="#E0C58E" stroke-width="2" opacity=".5"/><circle cx="24" cy="28" r="5" fill="#B79869" opacity=".16"/><circle cx="56" cy="28" r="2" fill="#B79869" opacity=".16"/><circle cx="88" cy="28" r="3" fill="#B79869" opacity=".16"/><path d="M80 36 C88 16 106 20 110 32" stroke="#7A8B81" stroke-width="1.4" fill="none" opacity=".42"/><circle cx="120" cy="28" r="4" fill="#B79869" opacity=".16"/><circle cx="152" cy="28" r="5" fill="#B79869" opacity=".16"/><circle cx="184" cy="28" r="2" fill="#B79869" opacity=".16"/><path d="M176 36 C184 16 202 20 206 32" stroke="#7A8B81" stroke-width="1.4" fill="none" opacity=".42"/><circle cx="216" cy="28" r="3" fill="#B79869" opacity=".16"/><circle cx="38" cy="66" r="2" fill="#B79869" opacity=".16"/><circle cx="70" cy="66" r="3" fill="#B79869" opacity=".16"/><path d="M62 74 C70 54 88 58 92 70" stroke="#7A8B81" stroke-width="1.4" fill="none" opacity=".42"/><circle cx="102" cy="66" r="4" fill="#B79869" opacity=".16"/><circle cx="134" cy="66" r="5" fill="#B79869" opacity=".16"/><circle cx="166" cy="66" r="2" fill="#B79869" opacity=".16"/><path d="M158 74 C166 54 184 58 188 70" stroke="#7A8B81" stroke-width="1.4" fill="none" opacity=".42"/><circle cx="198" cy="66" r="3" fill="#B79869" opacity=".16"/><circle cx="230" cy="66" r="4" fill="#B79869" opacity=".16"/><circle cx="24" cy="104" r="3" fill="#B79869" opacity=".16"/><path d="M16 112 C24 92 42 96 46 108" stroke="#7A8B81" stroke-width="1.4" fill="none" opacity=".42"/><circle cx="56" cy="104" r="4" fill="#B79869" opacity=".16"/><circle cx="88" cy="104" r="5" fill="#B79869" opacity=".16"/><circle cx="120" cy="104" r="2" fill="#B79869" opacity=".16"/><path d="M112 112 C120 92 138 96 142 108" stroke="#7A8B81" stroke-width="1.4" fill="none" opacity=".42"/><circle cx="152" cy="104" r="3" fill="#B79869" opacity=".16"/><circle cx="184" cy="104" r="4" fill="#B79869" opacity=".16"/><circle cx="216" cy="104" r="5" fill="#B79869" opacity=".16"/><path d="M208 112 C216 92 234 96 238 108" stroke="#7A8B81" stroke-width="1.4" fill="none" opacity=".42"/><circle cx="38" cy="142" r="4" fill="#B79869" opacity=".16"/><circle cx="70" cy="142" r="5" fill="#B79869" opacity=".16"/><circle cx="102" cy="142" r="2" fill="#B79869" opacity=".16"/><path d="M94 150 C102 130 120 134 124 146" stroke="#7A8B81" stroke-width="1.4" fill="none" opacity=".42"/><circle cx="134" cy="142" r="3" fill="#B79869" opacity=".16"/><circle cx="166" cy="142" r="4" fill="#B79869" opacity=".16"/><circle cx="198" cy="142" r="5" fill="#B79869" opacity=".16"/><path d="M190 150 C198 130 216 134 220 146" stroke="#7A8B81" stroke-width="1.4" fill="none" opacity=".42"/><circle cx="230" cy="142" r="2" fill="#B79869" opacity=".16"/><circle cx="24" cy="180" r="5" fill="#B79869" opacity=".16"/><circle cx="56" cy="180" r="2" fill="#B79869" opacity=".16"/><path d="M48 188 C56 168 74 172 78 184" stroke="#7A8B81" stroke-width="1.4" fill="none" opacity=".42"/><circle cx="88" cy="180" r="3" fill="#B79869" opacity=".16"/><circle cx="120" cy="180" r="4" fill="#B79869" opacity=".16"/><circle cx="152" cy="180" r="5" fill="#B79869" opacity=".16"/><path d="M144 188 C152 168 170 172 174 184" stroke="#7A8B81" stroke-width="1.4" fill="none" opacity=".42"/><circle cx="184" cy="180" r="2" fill="#B79869" opacity=".16"/><circle cx="216" cy="180" r="3" fill="#B79869" opacity=".16"/></svg>
