<svg xmlns="http://www.w3.org/2000/svg" width="240" height="240" viewBox="0 0 240 240" fill="none" role="img" aria-label="Sofiati technology icon"><circle cx="120" cy="120" r="82" fill="#F8F4EA" stroke="#344039" stroke-width="4"/><g stroke="#D2C5A7" fill="#F2EEE3" stroke-width="2" opacity=".9"><g transform="translate(142.00 52.00) rotate(382.00) scale(0.27)"><path d="M0 0 C18 -18 42 -18 58 0 C42 14 18 14 0 0Z" /><path d="M4 0 C22 -3 38 -2 55 0" /></g><g transform="translate(82.00 186.00) rotate(-166.00) scale(0.22)"><path d="M0 0 C18 -18 42 -18 58 0 C42 14 18 14 0 0Z" /><path d="M4 0 C22 -3 38 -2 55 0" /></g></g><g stroke="#344039" stroke-width="4" stroke-linecap="round" stroke-linejoin="round"><path d="M90 88 H150 V148 H90 Z"/><path d="M120 58 V88 M120 148 V182 M58 118 H90 M150 118 H182 M76 74 L90 88 M164 74 L150 88 M76 164 L90 148 M164 164 L150 148"/></g><circle cx="178" cy="64" r="12" fill="#9DA799" opacity=".28"/></svg>
